<svg width="107" height="43" viewBox="0 0 107 43" fill="none" xmlns="http://www.w3.org/2000/svg">
<g filter="url(#filter0_bii)">
<path d="M0 19.5118C0 8.73572 8.73572 0 19.5118 0H87.4882C98.2643 0 107 8.73572 107 19.5118V23.4882C107 34.2643 98.2643 43 87.4882 43H19.5118C8.73572 43 0 34.2643 0 23.4882V19.5118Z" fill="white" fill-opacity="0.03"/>
</g>
<line x1="15" y1="15.8912" x2="91" y2="15.8912" stroke="#04A8FF" stroke-width="2" stroke-linecap="round"/>
<line x1="15" y1="19.8912" x2="91" y2="19.8912" stroke="#04A8FF" stroke-width="2" stroke-linecap="round"/>
<g filter="url(#filter1_bii)">
<path d="M14.4035 27.994C14.4035 26.7336 14.9225 25.708 15.9605 24.9171C17.0109 24.1262 18.3825 23.7308 20.0755 23.7308C21.7807 23.7308 23.1709 24.1448 24.246 24.9727C25.3334 25.8006 25.8771 26.6656 25.8771 27.5677C25.8771 27.6789 25.8339 27.7778 25.7474 27.8643C25.6732 27.9384 25.5867 27.9755 25.4879 27.9755H21.7807C21.4965 27.9755 21.237 27.8705 21.0022 27.6604C20.7675 27.4503 20.4524 27.3453 20.0569 27.3453C19.4638 27.3453 19.1672 27.5183 19.1672 27.8643C19.1672 28.0496 19.3093 28.2041 19.5935 28.3277C19.8901 28.4512 20.4338 28.5625 21.2247 28.6613C23.0659 28.8961 24.3757 29.3286 25.1542 29.9588C25.9451 30.5767 26.3405 31.522 26.3405 32.7948C26.3405 34.0552 25.7597 35.087 24.5982 35.8902C23.449 36.6811 21.9414 37.0765 20.0755 37.0765C18.2095 37.0765 16.7452 36.6935 15.6825 35.9273C14.6198 35.1612 14.0884 34.2282 14.0884 33.1284C14.0884 33.0172 14.1255 32.9245 14.1996 32.8504C14.2861 32.7639 14.385 32.7206 14.4962 32.7206H18.018C18.2775 32.7206 18.5617 32.8442 18.8706 33.0913C19.1919 33.3385 19.6306 33.4621 20.1867 33.4621C21.1135 33.4621 21.5769 33.2891 21.5769 32.9431C21.5769 32.7206 21.41 32.5538 21.0764 32.4426C20.7427 32.319 20.1125 32.1955 19.1857 32.0719C15.9976 31.6517 14.4035 30.2925 14.4035 27.994ZM27.9476 23.9162H38.8096C38.9455 23.9162 39.0629 23.9656 39.1617 24.0645C39.2606 24.1633 39.31 24.2807 39.31 24.4166V27.4009C39.31 27.5368 39.2606 27.6542 39.1617 27.7531C39.0629 27.8519 38.9455 27.9013 38.8096 27.9013H35.7326V36.3907C35.7326 36.5266 35.6832 36.644 35.5844 36.7429C35.4855 36.8417 35.3681 36.8912 35.2322 36.8912H31.525C31.3891 36.8912 31.2717 36.8417 31.1729 36.7429C31.074 36.644 31.0246 36.5266 31.0246 36.3907V27.9013H27.9476C27.8117 27.9013 27.6943 27.8519 27.5955 27.7531C27.4966 27.6542 27.4472 27.5368 27.4472 27.4009V24.4166C27.4472 24.2807 27.4966 24.1633 27.5955 24.0645C27.6943 23.9656 27.8117 23.9162 27.9476 23.9162ZM45.1339 23.9162H49.1561C49.601 23.9162 49.879 24.1201 49.9902 24.5278L54.1237 36.3536C54.1361 36.3907 54.1422 36.4525 54.1422 36.539C54.1422 36.6131 54.099 36.6935 54.0125 36.78C53.9383 36.8541 53.8457 36.8912 53.7344 36.8912H50.3053C49.9346 36.8912 49.6937 36.7367 49.5824 36.4278L49.1376 35.2044H45.1524L44.7075 36.4278C44.5963 36.7367 44.3554 36.8912 43.9847 36.8912H40.5555C40.4443 36.8912 40.3455 36.8541 40.259 36.78C40.1848 36.6935 40.1478 36.6131 40.1478 36.539C40.1478 36.4525 40.1539 36.3907 40.1663 36.3536L44.2998 24.5278C44.411 24.1201 44.689 23.9162 45.1339 23.9162ZM46.0977 31.59H48.1923L47.1357 28.1423L46.0977 31.59ZM62.375 28.5501C62.5109 28.3895 62.5789 28.1979 62.5789 27.9755C62.5789 27.7531 62.5109 27.5553 62.375 27.3823C62.2514 27.197 62.0661 27.1043 61.8189 27.1043H60.2619V28.7911H61.8189C62.0661 28.7911 62.2514 28.7107 62.375 28.5501ZM60.2619 31.8865V33.703H61.9857C62.27 33.703 62.48 33.6103 62.616 33.425C62.7642 33.2273 62.8384 33.011 62.8384 32.7762V32.7577C62.8384 32.5229 62.7581 32.319 62.5974 32.146C62.4491 31.973 62.2452 31.8865 61.9857 31.8865H60.2619ZM62.4677 36.8912H56.1285C55.9925 36.8912 55.8751 36.8417 55.7763 36.7429C55.6774 36.644 55.628 36.5266 55.628 36.3907V24.4166C55.628 24.2807 55.6774 24.1633 55.7763 24.0645C55.8751 23.9656 55.9925 23.9162 56.1285 23.9162H62.2823C64.037 23.9162 65.3283 24.2375 66.1563 24.88C66.9966 25.5102 67.4167 26.4679 67.4167 27.7531V27.8087C67.4167 28.34 67.2622 28.8158 66.9533 29.2359C66.6444 29.6437 66.3046 29.9403 65.9338 30.1256C66.4281 30.3233 66.8421 30.6755 67.1757 31.1822C67.5217 31.6765 67.6947 32.2202 67.6947 32.8133C67.6947 35.5319 65.9524 36.8912 62.4677 36.8912ZM74.3465 33.0913H79.4809C79.6168 33.0913 79.7342 33.1408 79.833 33.2396C79.9319 33.3385 79.9813 33.4559 79.9813 33.5918V36.3907C79.9813 36.5266 79.9319 36.644 79.833 36.7429C79.7342 36.8417 79.6168 36.8912 79.4809 36.8912H70.1388C70.0029 36.8912 69.8855 36.8417 69.7867 36.7429C69.6878 36.644 69.6384 36.5266 69.6384 36.3907V24.4166C69.6384 24.2807 69.6878 24.1633 69.7867 24.0645C69.8855 23.9656 70.0029 23.9162 70.1388 23.9162H73.846C73.9819 23.9162 74.0993 23.9656 74.1982 24.0645C74.297 24.1633 74.3465 24.2807 74.3465 24.4166V33.0913ZM86.1062 33.2767H91.8152C91.9511 33.2767 92.0685 33.3261 92.1674 33.425C92.2663 33.5238 92.3157 33.6412 92.3157 33.7772V36.3907C92.3157 36.5266 92.2663 36.644 92.1674 36.7429C92.0685 36.8417 91.9511 36.8912 91.8152 36.8912H82.1581C82.0222 36.8912 81.9048 36.8417 81.8059 36.7429C81.7071 36.644 81.6576 36.5266 81.6576 36.3907V24.4166C81.6576 24.2807 81.7071 24.1633 81.8059 24.0645C81.9048 23.9656 82.0222 23.9162 82.1581 23.9162H91.6669C91.8029 23.9162 91.9203 23.9656 92.0191 24.0645C92.118 24.1633 92.1674 24.2807 92.1674 24.4166V27.0302C92.1674 27.1661 92.118 27.2835 92.0191 27.3823C91.9203 27.4812 91.8029 27.5306 91.6669 27.5306H86.1062V28.6984H91.2591C91.3951 28.6984 91.5125 28.7478 91.6113 28.8467C91.7102 28.9455 91.7596 29.0629 91.7596 29.1988V31.6085C91.7596 31.7444 91.7102 31.8618 91.6113 31.9607C91.5125 32.0595 91.3951 32.109 91.2591 32.109H86.1062V33.2767Z" fill="#FF1A8F"/>
</g>
<g filter="url(#filter2_bii)">
<path d="M52.3633 7.26527H67.2923C67.5095 7.26527 67.6971 7.34426 67.8551 7.50224C68.0131 7.66022 68.0921 7.84782 68.0921 8.06504V12.5674C68.0921 12.7847 68.0131 12.9723 67.8551 13.1302C67.6971 13.2882 67.5095 13.3672 67.2923 13.3672H58.8207V15.5592H66.6999C66.9171 15.5592 67.1047 15.6382 67.2627 15.7961C67.4207 15.9541 67.4997 16.1417 67.4997 16.3589V20.8317C67.4997 21.0489 67.4207 21.2365 67.2627 21.3945C67.1047 21.5525 66.9171 21.6315 66.6999 21.6315H58.8207V27.2002C58.8207 27.4175 58.7417 27.6051 58.5837 27.763C58.4258 27.921 58.2382 28 58.0209 28H52.3633C52.1461 28 51.9585 27.921 51.8005 27.763C51.6425 27.6051 51.5636 27.4175 51.5636 27.2002V8.06504C51.5636 7.84782 51.6425 7.66022 51.8005 7.50224C51.9585 7.34426 52.1461 7.26527 52.3633 7.26527Z" fill="white" fill-opacity="0.03"/>
</g>
<g filter="url(#filter3_bii)">
<path d="M51.3904 28H45.5847C45.3674 28 45.1798 27.921 45.0219 27.763C44.8639 27.6051 44.7849 27.4175 44.7849 27.2002V21.3649L38.1202 8.18353C38.0807 8.10454 38.0609 7.99593 38.0609 7.85769C38.0609 7.71946 38.1202 7.5911 38.2386 7.47262C38.3769 7.33439 38.5349 7.26527 38.7126 7.26527H44.2813C44.8738 7.26527 45.2885 7.51212 45.5254 8.0058L48.4875 13.9596L51.4496 8.0058C51.6866 7.51212 52.1013 7.26527 52.6937 7.26527H58.2625C58.4402 7.26527 58.5883 7.33439 58.7068 7.47262C58.845 7.5911 58.9141 7.71946 58.9141 7.85769C58.9141 7.99593 58.8944 8.10454 58.8549 8.18353L52.1902 21.3649V27.2002C52.1902 27.4175 52.1112 27.6051 51.9532 27.763C51.7952 27.921 51.6076 28 51.3904 28Z" fill="white" fill-opacity="0.03"/>
</g>
<defs>
<filter id="filter0_bii" x="-27.0647" y="-27.0647" width="161.129" height="97.1294" filterUnits="userSpaceOnUse" color-interpolation-filters="sRGB">
<feFlood flood-opacity="0" result="BackgroundImageFix"/>
<feGaussianBlur in="BackgroundImage" stdDeviation="13.5324"/>
<feComposite in2="SourceAlpha" operator="in" result="effect1_backgroundBlur"/>
<feBlend mode="normal" in="SourceGraphic" in2="effect1_backgroundBlur" result="shape"/>
<feColorMatrix in="SourceAlpha" type="matrix" values="0 0 0 0 0 0 0 0 0 0 0 0 0 0 0 0 0 0 127 0" result="hardAlpha"/>
<feOffset dy="1.25882"/>
<feGaussianBlur stdDeviation="0.629412"/>
<feComposite in2="hardAlpha" operator="arithmetic" k2="-1" k3="1"/>
<feColorMatrix type="matrix" values="0 0 0 0 1 0 0 0 0 1 0 0 0 0 1 0 0 0 0.15 0"/>
<feBlend mode="normal" in2="shape" result="effect2_innerShadow"/>
<feColorMatrix in="SourceAlpha" type="matrix" values="0 0 0 0 0 0 0 0 0 0 0 0 0 0 0 0 0 0 127 0" result="hardAlpha"/>
<feOffset/>
<feGaussianBlur stdDeviation="10.7"/>
<feComposite in2="hardAlpha" operator="arithmetic" k2="-1" k3="1"/>
<feColorMatrix type="matrix" values="0 0 0 0 1 0 0 0 0 1 0 0 0 0 1 0 0 0 0.05 0"/>
<feBlend mode="normal" in2="effect2_innerShadow" result="effect3_innerShadow"/>
</filter>
<filter id="filter1_bii" x="-7.69105" y="1.95134" width="121.786" height="56.9047" filterUnits="userSpaceOnUse" color-interpolation-filters="sRGB">
<feFlood flood-opacity="0" result="BackgroundImageFix"/>
<feGaussianBlur in="BackgroundImage" stdDeviation="10.8897"/>
<feComposite in2="SourceAlpha" operator="in" result="effect1_backgroundBlur"/>
<feBlend mode="normal" in="SourceGraphic" in2="effect1_backgroundBlur" result="shape"/>
<feColorMatrix in="SourceAlpha" type="matrix" values="0 0 0 0 0 0 0 0 0 0 0 0 0 0 0 0 0 0 127 0" result="hardAlpha"/>
<feOffset dy="0.926786"/>
<feGaussianBlur stdDeviation="0.463393"/>
<feComposite in2="hardAlpha" operator="arithmetic" k2="-1" k3="1"/>
<feColorMatrix type="matrix" values="0 0 0 0 1 0 0 0 0 1 0 0 0 0 1 0 0 0 0.15 0"/>
<feBlend mode="normal" in2="shape" result="effect2_innerShadow"/>
<feColorMatrix in="SourceAlpha" type="matrix" values="0 0 0 0 0 0 0 0 0 0 0 0 0 0 0 0 0 0 127 0" result="hardAlpha"/>
<feOffset/>
<feGaussianBlur stdDeviation="7.87768"/>
<feComposite in2="hardAlpha" operator="arithmetic" k2="-1" k3="1"/>
<feColorMatrix type="matrix" values="0 0 0 0 1 0 0 0 0 1 0 0 0 0 1 0 0 0 0.05 0"/>
<feBlend mode="normal" in2="effect2_innerShadow" result="effect3_innerShadow"/>
</filter>
<filter id="filter2_bii" x="39.1376" y="-5.16067" width="41.3804" height="45.5866" filterUnits="userSpaceOnUse" color-interpolation-filters="sRGB">
<feFlood flood-opacity="0" result="BackgroundImageFix"/>
<feGaussianBlur in="BackgroundImage" stdDeviation="6.21297"/>
<feComposite in2="SourceAlpha" operator="in" result="effect1_backgroundBlur"/>
<feBlend mode="normal" in="SourceGraphic" in2="effect1_backgroundBlur" result="shape"/>
<feColorMatrix in="SourceAlpha" type="matrix" values="0 0 0 0 0 0 0 0 0 0 0 0 0 0 0 0 0 0 127 0" result="hardAlpha"/>
<feOffset dy="0.577951"/>
<feGaussianBlur stdDeviation="0.288975"/>
<feComposite in2="hardAlpha" operator="arithmetic" k2="-1" k3="1"/>
<feColorMatrix type="matrix" values="0 0 0 0 1 0 0 0 0 1 0 0 0 0 1 0 0 0 0.15 0"/>
<feBlend mode="normal" in2="shape" result="effect2_innerShadow"/>
<feColorMatrix in="SourceAlpha" type="matrix" values="0 0 0 0 0 0 0 0 0 0 0 0 0 0 0 0 0 0 127 0" result="hardAlpha"/>
<feOffset/>
<feGaussianBlur stdDeviation="4.91258"/>
<feComposite in2="hardAlpha" operator="arithmetic" k2="-1" k3="1"/>
<feColorMatrix type="matrix" values="0 0 0 0 1 0 0 0 0 1 0 0 0 0 1 0 0 0 0.05 0"/>
<feBlend mode="normal" in2="effect2_innerShadow" result="effect3_innerShadow"/>
</filter>
<filter id="filter3_bii" x="25.635" y="-5.16067" width="45.7051" height="45.5866" filterUnits="userSpaceOnUse" color-interpolation-filters="sRGB">
<feFlood flood-opacity="0" result="BackgroundImageFix"/>
<feGaussianBlur in="BackgroundImage" stdDeviation="6.21297"/>
<feComposite in2="SourceAlpha" operator="in" result="effect1_backgroundBlur"/>
<feBlend mode="normal" in="SourceGraphic" in2="effect1_backgroundBlur" result="shape"/>
<feColorMatrix in="SourceAlpha" type="matrix" values="0 0 0 0 0 0 0 0 0 0 0 0 0 0 0 0 0 0 127 0" result="hardAlpha"/>
<feOffset dy="0.577951"/>
<feGaussianBlur stdDeviation="0.288975"/>
<feComposite in2="hardAlpha" operator="arithmetic" k2="-1" k3="1"/>
<feColorMatrix type="matrix" values="0 0 0 0 1 0 0 0 0 1 0 0 0 0 1 0 0 0 0.15 0"/>
<feBlend mode="normal" in2="shape" result="effect2_innerShadow"/>
<feColorMatrix in="SourceAlpha" type="matrix" values="0 0 0 0 0 0 0 0 0 0 0 0 0 0 0 0 0 0 127 0" result="hardAlpha"/>
<feOffset/>
<feGaussianBlur stdDeviation="4.91258"/>
<feComposite in2="hardAlpha" operator="arithmetic" k2="-1" k3="1"/>
<feColorMatrix type="matrix" values="0 0 0 0 1 0 0 0 0 1 0 0 0 0 1 0 0 0 0.05 0"/>
<feBlend mode="normal" in2="effect2_innerShadow" result="effect3_innerShadow"/>
</filter>
</defs>
</svg>
